<svg xmlns="http://www.w3.org/2000/svg" xmlns:xlink="http://www.w3.org/1999/xlink" width="500" zoomAndPan="magnify" viewBox="0 0 375 374.999991" height="500" preserveAspectRatio="xMidYMid meet" version="1.0"><defs><clipPath id="654c2353e5"><path d="M 98 92 L 187 92 L 187 238.886719 L 98 238.886719 Z M 98 92 " clip-rule="nonzero"/></clipPath><clipPath id="a2d317dbc3"><path d="M 188 92 L 277 92 L 277 238.886719 L 188 238.886719 Z M 188 92 " clip-rule="nonzero"/></clipPath></defs><g clip-path="url(#654c2353e5)"><path fill="#ef3340" d="M 98.21875 234.105469 L 182.140625 93.949219 C 183.371094 91.886719 186.53125 92.765625 186.53125 95.167969 L 186.53125 118.800781 C 186.53125 137.65625 179.058594 155.742188 165.753906 169.074219 L 99.699219 235.261719 C 98.910156 236.050781 97.644531 235.058594 98.21875 234.105469 Z M 183.46875 190.539062 L 147.140625 201.816406 C 136.132812 205.234375 126.121094 211.289062 117.976562 219.449219 L 100.996094 236.46875 C 100.082031 237.382812 101.089844 238.898438 102.289062 238.398438 L 184.929688 203.890625 C 185.902344 203.480469 186.53125 202.53125 186.53125 201.476562 L 186.53125 192.800781 C 186.53125 191.207031 184.992188 190.066406 183.46875 190.539062 Z M 183.46875 190.539062 " fill-opacity="1" fill-rule="nonzero"/></g><g clip-path="url(#a2d317dbc3)"><path fill="#ef3340" d="M 192.664062 93.949219 L 276.585938 234.105469 C 277.15625 235.0625 275.890625 236.050781 275.105469 235.261719 L 209.050781 169.074219 C 195.746094 155.742188 188.269531 137.65625 188.269531 118.800781 L 188.269531 95.167969 C 188.269531 92.765625 191.429688 91.886719 192.664062 93.949219 Z M 188.269531 201.480469 C 188.269531 202.53125 188.90625 203.484375 189.875 203.894531 L 272.515625 238.402344 C 273.714844 238.898438 274.722656 237.386719 273.808594 236.472656 L 256.828125 219.453125 C 248.679688 211.289062 238.667969 205.238281 227.660156 201.820312 L 191.335938 190.542969 C 189.816406 190.070312 188.269531 191.210938 188.269531 192.808594 Z M 188.269531 201.480469 " fill-opacity="1" fill-rule="nonzero"/></g></svg>