<svg xmlns="http://www.w3.org/2000/svg" xmlns:xlink="http://www.w3.org/1999/xlink" width="500" zoomAndPan="magnify" viewBox="0 0 375 374.999991" height="500" preserveAspectRatio="xMidYMid meet" version="1.0"><defs><g/><clipPath id="b9c217eeac"><path d="M 98 92 L 187 92 L 187 238.886719 L 98 238.886719 Z M 98 92 " clip-rule="nonzero"/></clipPath><clipPath id="9fa7f2a483"><path d="M 188 92 L 277 92 L 277 238.886719 L 188 238.886719 Z M 188 92 " clip-rule="nonzero"/></clipPath></defs><g clip-path="url(#b9c217eeac)"><path fill="#ef3340" d="M 98.21875 234.105469 L 182.140625 93.949219 C 183.371094 91.886719 186.53125 92.765625 186.53125 95.167969 L 186.53125 118.800781 C 186.53125 137.65625 179.058594 155.742188 165.753906 169.074219 L 99.699219 235.261719 C 98.910156 236.050781 97.644531 235.058594 98.21875 234.105469 Z M 183.46875 190.539062 L 147.140625 201.816406 C 136.132812 205.234375 126.121094 211.289062 117.976562 219.449219 L 100.996094 236.46875 C 100.082031 237.382812 101.089844 238.898438 102.289062 238.398438 L 184.929688 203.890625 C 185.902344 203.480469 186.53125 202.53125 186.53125 201.476562 L 186.53125 192.800781 C 186.53125 191.207031 184.992188 190.066406 183.46875 190.539062 Z M 183.46875 190.539062 " fill-opacity="1" fill-rule="nonzero"/></g><g clip-path="url(#9fa7f2a483)"><path fill="#ef3340" d="M 192.664062 93.949219 L 276.585938 234.105469 C 277.15625 235.0625 275.890625 236.050781 275.105469 235.261719 L 209.050781 169.074219 C 195.746094 155.742188 188.269531 137.65625 188.269531 118.800781 L 188.269531 95.167969 C 188.269531 92.765625 191.429688 91.886719 192.664062 93.949219 Z M 188.269531 201.480469 C 188.269531 202.53125 188.90625 203.484375 189.875 203.894531 L 272.515625 238.402344 C 273.714844 238.898438 274.722656 237.386719 273.808594 236.472656 L 256.828125 219.453125 C 248.679688 211.289062 238.667969 205.238281 227.660156 201.820312 L 191.335938 190.542969 C 189.816406 190.070312 188.269531 191.210938 188.269531 192.808594 Z M 188.269531 201.480469 " fill-opacity="1" fill-rule="nonzero"/></g><g fill="#ef3340" fill-opacity="1"><g transform="translate(90.561671, 264.724216)"><g><path d="M 1.703125 -2.796875 L 5.71875 -14.453125 L 4.15625 -14.59375 L 4.15625 -16.625 L 9.875 -16.625 L 14.96875 -2.203125 L 15 -2.203125 L 16.421875 -2.125 L 16.421875 0 L 9.96875 0 L 9.96875 -2.03125 L 10.921875 -2.09375 C 11.203125 -2.132812 11.394531 -2.203125 11.5 -2.296875 C 11.601562 -2.398438 11.613281 -2.582031 11.53125 -2.84375 L 11 -4.40625 L 5.15625 -4.40625 L 4.40625 -2.203125 L 5.90625 -2.125 L 5.90625 0 L 0.125 0 L 0.125 -2.03125 L 0.953125 -2.09375 C 1.296875 -2.132812 1.546875 -2.367188 1.703125 -2.796875 Z M 8.078125 -13.828125 L 5.75 -6.703125 L 10.40625 -6.703125 L 8.15625 -13.828125 Z M 8.078125 -13.828125 "/></g></g></g><g fill="#ef3340" fill-opacity="1"><g transform="translate(110.859048, 264.724216)"><g><path d="M 12.671875 0 L 0.796875 0 L 0.796875 -2.03125 L 1.625 -2.09375 C 2.101562 -2.144531 2.34375 -2.378906 2.34375 -2.796875 L 2.34375 -14.421875 L 0.921875 -14.5 L 0.921875 -16.625 L 6.953125 -16.625 L 6.953125 -14.59375 L 6.125 -14.53125 C 5.644531 -14.476562 5.40625 -14.207031 5.40625 -13.71875 L 5.40625 -2.578125 L 9.546875 -2.578125 C 9.785156 -2.578125 9.941406 -2.640625 10.015625 -2.765625 C 10.085938 -2.890625 10.125 -3.09375 10.125 -3.375 L 10.125 -5.125 L 12.671875 -4.953125 Z M 12.671875 0 "/></g></g></g><g fill="#ef3340" fill-opacity="1"><g transform="translate(128.031925, 264.724216)"><g><path d="M 0.84375 0 L 0.84375 -2.03125 L 1.671875 -2.09375 C 2.160156 -2.144531 2.40625 -2.378906 2.40625 -2.796875 L 2.40625 -14.421875 L 0.96875 -14.5 L 0.96875 -16.625 L 13.046875 -16.625 L 13.046875 -12.46875 L 10.5 -12.296875 L 10.5 -13.296875 C 10.5 -13.578125 10.457031 -13.773438 10.375 -13.890625 C 10.289062 -14.015625 10.09375 -14.078125 9.78125 -14.078125 L 5.453125 -14.078125 L 5.453125 -9.65625 L 11.59375 -9.65625 L 11.59375 -7.09375 L 5.453125 -7.09375 L 5.453125 -2.203125 L 7.671875 -2.125 L 7.671875 0 Z M 0.84375 0 "/></g></g></g><g fill="#ef3340" fill-opacity="1"><g transform="translate(145.354777, 264.724216)"><g><path d="M 1.703125 -2.796875 L 5.71875 -14.453125 L 4.15625 -14.59375 L 4.15625 -16.625 L 9.875 -16.625 L 14.96875 -2.203125 L 15 -2.203125 L 16.421875 -2.125 L 16.421875 0 L 9.96875 0 L 9.96875 -2.03125 L 10.921875 -2.09375 C 11.203125 -2.132812 11.394531 -2.203125 11.5 -2.296875 C 11.601562 -2.398438 11.613281 -2.582031 11.53125 -2.84375 L 11 -4.40625 L 5.15625 -4.40625 L 4.40625 -2.203125 L 5.90625 -2.125 L 5.90625 0 L 0.125 0 L 0.125 -2.03125 L 0.953125 -2.09375 C 1.296875 -2.132812 1.546875 -2.367188 1.703125 -2.796875 Z M 8.078125 -13.828125 L 5.75 -6.703125 L 10.40625 -6.703125 L 8.15625 -13.828125 Z M 8.078125 -13.828125 "/></g></g></g><g fill="#ef3340" fill-opacity="1"><g transform="translate(165.652153, 264.724216)"><g/></g></g><g fill="#ef3340" fill-opacity="1"><g transform="translate(174.401367, 264.724216)"><g><path d="M 2.34375 -2.921875 L 2.34375 -14.421875 L 0.921875 -14.5 L 0.921875 -16.625 L 6.921875 -16.625 L 6.921875 -14.59375 L 6.09375 -14.53125 C 5.613281 -14.476562 5.375 -14.207031 5.375 -13.71875 L 5.375 -8.21875 L 10.46875 -14.421875 L 9.078125 -14.5 L 9.078125 -16.625 L 14.921875 -16.625 L 14.921875 -14.59375 L 14.09375 -14.53125 C 13.78125 -14.488281 13.445312 -14.253906 13.09375 -13.828125 L 9.546875 -9.46875 L 13.96875 -2.203125 L 15.296875 -2.125 L 15.296875 0 L 8.90625 0 L 8.90625 -2.03125 L 9.671875 -2.09375 C 10.003906 -2.132812 10.171875 -2.269531 10.171875 -2.5 C 10.171875 -2.601562 10.128906 -2.738281 10.046875 -2.90625 L 7.578125 -7.171875 L 5.375 -4.53125 L 5.375 -2.203125 L 6.796875 -2.125 L 6.796875 0 L 0.796875 0 L 0.796875 -2.03125 L 1.625 -2.09375 C 1.875 -2.132812 2.054688 -2.207031 2.171875 -2.3125 C 2.285156 -2.414062 2.34375 -2.617188 2.34375 -2.921875 Z M 2.34375 -2.921875 "/></g></g></g><g fill="#ef3340" fill-opacity="1"><g transform="translate(193.698909, 264.724216)"><g><path d="M 5.03125 -13.703125 L 5.03125 -5.40625 C 5.03125 -4.238281 5.304688 -3.414062 5.859375 -2.9375 C 6.421875 -2.457031 7.222656 -2.21875 8.265625 -2.21875 C 9.304688 -2.21875 10.113281 -2.476562 10.6875 -3 C 11.257812 -3.519531 11.546875 -4.28125 11.546875 -5.28125 L 11.546875 -14.421875 L 10.09375 -14.5 L 10.09375 -16.625 L 16.03125 -16.625 L 16.03125 -14.59375 L 15.203125 -14.53125 C 14.710938 -14.476562 14.46875 -14.226562 14.46875 -13.78125 L 14.46875 -4.84375 C 14.46875 -3.226562 13.898438 -1.960938 12.765625 -1.046875 C 11.640625 -0.128906 10.078125 0.328125 8.078125 0.328125 C 6.078125 0.328125 4.5625 -0.113281 3.53125 -1 C 2.507812 -1.894531 2 -3.3125 2 -5.25 L 2 -14.421875 L 0.546875 -14.5 L 0.546875 -16.625 L 6.59375 -16.625 L 6.59375 -14.59375 L 5.78125 -14.53125 C 5.507812 -14.488281 5.316406 -14.414062 5.203125 -14.3125 C 5.085938 -14.207031 5.03125 -14.003906 5.03125 -13.703125 Z M 5.03125 -13.703125 "/></g></g></g><g fill="#ef3340" fill-opacity="1"><g transform="translate(213.921304, 264.724216)"><g><path d="M 0.796875 0 L 0.796875 -2.03125 L 1.625 -2.09375 C 2.101562 -2.144531 2.34375 -2.378906 2.34375 -2.796875 L 2.34375 -14.421875 L 0.921875 -14.5 L 0.921875 -16.625 L 7.75 -16.625 C 9.6875 -16.625 11.171875 -16.265625 12.203125 -15.546875 C 13.234375 -14.828125 13.75 -13.65625 13.75 -12.03125 C 13.75 -10.894531 13.453125 -9.957031 12.859375 -9.21875 C 12.265625 -8.488281 11.5625 -7.957031 10.75 -7.625 C 11.351562 -7.40625 11.828125 -6.894531 12.171875 -6.09375 L 13.96875 -2.171875 L 15.40625 -2.125 L 15.40625 0 L 9.21875 0 L 9.21875 -2.03125 L 9.953125 -2.09375 C 10.335938 -2.144531 10.53125 -2.296875 10.53125 -2.546875 C 10.53125 -2.648438 10.492188 -2.769531 10.421875 -2.90625 L 9.25 -5.40625 C 9.0625 -5.820312 8.851562 -6.113281 8.625 -6.28125 C 8.40625 -6.457031 8.085938 -6.546875 7.671875 -6.546875 L 5.40625 -6.546875 L 5.40625 -2.203125 L 7.03125 -2.125 L 7.03125 0 Z M 5.40625 -8.921875 L 7.578125 -8.921875 C 9.628906 -8.921875 10.65625 -9.835938 10.65625 -11.671875 C 10.65625 -12.722656 10.382812 -13.40625 9.84375 -13.71875 C 9.300781 -14.039062 8.425781 -14.203125 7.21875 -14.203125 L 5.40625 -14.203125 Z M 5.40625 -8.921875 "/></g></g></g><g fill="#ef3340" fill-opacity="1"><g transform="translate(233.318821, 264.724216)"><g><path d="M 5.546875 -2.796875 L 5.546875 -6.34375 L 1.296875 -14.421875 L 0.125 -14.5 L 0.125 -16.625 L 6.21875 -16.625 L 6.21875 -14.59375 L 5.46875 -14.53125 C 5.207031 -14.507812 5.035156 -14.40625 4.953125 -14.21875 C 4.878906 -14.039062 4.910156 -13.816406 5.046875 -13.546875 L 7.171875 -9.203125 L 7.28125 -9.203125 L 10 -14.40625 L 8.75 -14.5 L 8.75 -16.625 L 14.125 -16.625 L 14.125 -14.59375 L 13.375 -14.53125 C 13.0625 -14.488281 12.78125 -14.238281 12.53125 -13.78125 L 8.59375 -6.34375 L 8.59375 -2.203125 L 10.546875 -2.125 L 10.546875 0 L 3.5 0 L 3.5 -2.03125 L 4.828125 -2.09375 C 5.304688 -2.132812 5.546875 -2.367188 5.546875 -2.796875 Z M 5.546875 -2.796875 "/></g></g></g><g fill="#ef3340" fill-opacity="1"><g transform="translate(251.316566, 264.724216)"><g><path d="M 12.71875 0 L 0.84375 0 L 0.84375 -2.03125 L 1.671875 -2.09375 C 2.160156 -2.144531 2.40625 -2.378906 2.40625 -2.796875 L 2.40625 -14.421875 L 0.96875 -14.5 L 0.96875 -16.625 L 12.421875 -16.625 L 12.421875 -12.46875 L 9.875 -12.296875 L 9.875 -13.296875 C 9.875 -13.578125 9.832031 -13.773438 9.75 -13.890625 C 9.664062 -14.015625 9.46875 -14.078125 9.15625 -14.078125 L 5.453125 -14.078125 L 5.453125 -9.796875 L 11.21875 -9.796875 L 11.21875 -7.25 L 5.453125 -7.25 L 5.453125 -2.578125 L 9.46875 -2.578125 C 9.769531 -2.578125 9.960938 -2.640625 10.046875 -2.765625 C 10.128906 -2.890625 10.171875 -3.09375 10.171875 -3.375 L 10.171875 -4.625 L 12.71875 -4.453125 Z M 12.71875 0 "/></g></g></g><g fill="#ef3340" fill-opacity="1"><g transform="translate(268.789393, 264.724216)"><g><path d="M 0.796875 0 L 0.796875 -2.03125 L 1.625 -2.09375 C 2.101562 -2.144531 2.34375 -2.378906 2.34375 -2.796875 L 2.34375 -14.421875 L 0.921875 -14.5 L 0.921875 -16.625 L 7.75 -16.625 C 9.6875 -16.625 11.171875 -16.265625 12.203125 -15.546875 C 13.234375 -14.828125 13.75 -13.65625 13.75 -12.03125 C 13.75 -10.894531 13.453125 -9.957031 12.859375 -9.21875 C 12.265625 -8.488281 11.5625 -7.957031 10.75 -7.625 C 11.351562 -7.40625 11.828125 -6.894531 12.171875 -6.09375 L 13.96875 -2.171875 L 15.40625 -2.125 L 15.40625 0 L 9.21875 0 L 9.21875 -2.03125 L 9.953125 -2.09375 C 10.335938 -2.144531 10.53125 -2.296875 10.53125 -2.546875 C 10.53125 -2.648438 10.492188 -2.769531 10.421875 -2.90625 L 9.25 -5.40625 C 9.0625 -5.820312 8.851562 -6.113281 8.625 -6.28125 C 8.40625 -6.457031 8.085938 -6.546875 7.671875 -6.546875 L 5.40625 -6.546875 L 5.40625 -2.203125 L 7.03125 -2.125 L 7.03125 0 Z M 5.40625 -8.921875 L 7.578125 -8.921875 C 9.628906 -8.921875 10.65625 -9.835938 10.65625 -11.671875 C 10.65625 -12.722656 10.382812 -13.40625 9.84375 -13.71875 C 9.300781 -14.039062 8.425781 -14.203125 7.21875 -14.203125 L 5.40625 -14.203125 Z M 5.40625 -8.921875 "/></g></g></g></svg>